<svg height="512pt" viewBox="0 -62 512.001 512" width="512pt" xmlns="http://www.w3.org/2000/svg"><path d="m489.503906 82.777344h-33.011718c-12.554688 0-18.191407 10.132812-20.785157 16.265625l-20.402343-53.421875c-.210938-1.609375-.792969-3.101563-1.671876-4.378906l-3.515624-9.207032c-6.933594-18.121094-12.136719-29.34375-30.960938-31.621094-.359375-.042968-.722656-.070312-1.082031-.074218l-26.183594-.33593775c-.042969-.00390625-.085937-.00390625-.128906-.00390625h-192.035157c-.042968 0-.085937 0-.128906.00390625l-26.039062.33593775c-.351563.003906-.703125.027344-1.050782.070312-19.007812 2.238282-24.226562 13.476563-31.164062 31.632813l-25.335938 66.398437c-2.703124-6.167968-8.375-15.664062-20.527343-15.664062h-32.984375c-12.402344 0-22.496094 10.089844-22.496094 22.492187v39.011719c0 6.015625 2.476562 11.890625 6.792969 16.117188 4.304687 4.214843 9.945312 6.4375 15.886719 6.34375l20.21875-.363282c-12.863282 18.449219-12.863282 33.003906-12.863282 50.882813v49.351562c-10.398437 3.996094-17.792968 13.976563-17.792968 25.636719 0 11.65625 7.394531 21.640625 17.792968 25.632812v30.796876c0 21.683593 17.65625 39.320312 39.355469 39.320312h27.515625c21.703125 0 39.355469-17.636719 39.355469-39.320312v-28.925782h239.476562v28.925782c0 21.683593 17.640625 39.320312 39.328125 39.320312h27.542969c21.683594 0 39.328125-17.636719 39.328125-39.320312v-30.796876c10.402344-3.992187 17.792969-13.976562 17.792969-25.632812 0-11.660156-7.390625-21.640625-17.792969-25.636719v-49.351562c0-17.878907-.003906-32.433594-12.84375-50.882813l20.199219.363282c5.941406.109374 11.609375-2.128907 15.914062-6.34375 4.316407-4.230469 6.792969-10.101563 6.792969-16.117188v-39.011719c0-12.402343-10.09375-22.492187-22.496094-22.492187zm-68.257812 52.695312h-116.394532l7.902344-10.769531h45.894532c5.570312 0 10.082031-4.515625 10.082031-10.082031 0-5.570313-4.511719-10.082032-10.082031-10.082032h-51.003907c-3.210937 0-6.234375 1.527344-8.132812 4.117188l-19.675781 26.816406h-118.367188l7.902344-10.769531h45.867187c5.570313 0 10.085938-4.515625 10.085938-10.082031 0-5.570313-4.515625-10.085938-10.085938-10.085938h-50.976562c-3.210938 0-6.234375 1.53125-8.132813 4.121094l-19.675781 26.816406h-46.207031l-3.398438-8.878906 26.550782-69.570312h284.671874l26.570313 69.574218zm-286.898438-114.972656 25.445313-.332031h191.902343l25.574219.332031c5.640625.695312 7.222657 1.328125 13.089844 16.359375h-269.257813c5.875-15.058594 7.480469-15.667969 13.246094-16.359375zm-18.253906 328.179688c0 10.5625-8.609375 19.152343-19.1875 19.152343h-27.511719c-10.582031 0-19.1875-8.589843-19.1875-19.152343v-28.925782h65.886719zm326.511719 19.152343h-27.542969c-10.5625 0-19.15625-8.589843-19.15625-19.152343v-28.925782h65.859375v28.925782c0 10.5625-8.59375 19.152343-19.160156 19.152343zm49.222656-223.550781c0 .890625-.511719 1.492188-.734375 1.707031-.28125.277344-.75.640625-1.40625.589844l-31.339844-.566406c-4.605468-.085938-8.734375 3.007812-9.925781 7.484375l-2.492187 9.347656c-.847657 3.171875-.097657 6.558594 2.011718 9.074219 13.824219 16.511719 13.824219 26.75 13.824219 45.34375v47.480469h-165.855469c-5.566406 0-10.082031 4.515624-10.082031 10.082031 0 5.566406 4.515625 10.085937 10.082031 10.085937h175.941406c4.25 0 7.710938 3.292969 7.710938 7.335938 0 4.050781-3.460938 7.339844-7.710938 7.339844h-431.730468c-4.25 0-7.710938-3.289063-7.710938-7.339844 0-3.976563 3.53125-7.335938 7.710938-7.335938h175.9375c5.570312 0 10.085937-4.519531 10.085937-10.085937 0-5.566407-4.515625-10.082031-10.085937-10.082031h-165.851563v-47.480469c0-18.589844 0-28.828125 13.847657-45.339844 2.113281-2.515625 2.867187-5.902344 2.019531-9.078125l-2.496094-9.347656c-1.191406-4.480469-5.292969-7.554688-9.925781-7.484375l-31.367188.570312c-.628906-.027343-1.097656-.316406-1.378906-.59375-.222656-.214843-.734375-.816406-.734375-1.707031v-39.011719c0-1.257812 1.0625-2.324219 2.324219-2.324219l32.929687.003907c.40625.378906 1.417969 1.664062 3.046875 5.925781l8.144532 21.285156c.007812.015625.011718.03125.015624.046875l6.925782 18.089844.328125.863281c1.496093 3.902344 5.242187 6.480469 9.421875 6.480469h58.222656.027344.015625 143.339843.023438.015625 143.230469c4.042968 0 7.78125-2.511719 9.328125-6.242187l7.140625-17.339844c.03125-.082032.066406-.160156.09375-.246094l8.753906-22.9375c1.632812-4.269531 2.65625-5.554688 3.066406-5.929688h32.9375c1.261719 0 2.328125 1.066407 2.328125 2.328126v39.007812zm0 0"/><path d="m176.222656 203.785156c-21.042968-4.925781-43.226562-10.757812-62.152344-15.816406-3.972656-1.0625-7.789062-1.597656-11.339843-1.597656-15.894531 0-25.769531 10.523437-25.769531 27.460937v5.578125c0 16.480469 10.6875 26.316406 28.589843 26.316406h68.375c5.570313 0 10.085938-4.515624 10.085938-10.082031v-22.039062c-.003907-4.683594-3.226563-8.75-7.789063-9.820313zm-12.382812 21.773438h-58.289063c-8.417969 0-8.417969-2.183594-8.417969-6.148438v-5.578125c0-7.292969 2.46875-7.292969 5.597657-7.292969 1.796875 0 3.863281.308594 6.136719.914063 16.761718 4.480469 36.074218 9.566406 54.972656 14.121094zm0 0"/><path d="m303.449219 224.542969h-87.726563c-5.570312 0-10.085937 4.511719-10.085937 10.082031 0 5.566406 4.515625 10.082031 10.085937 10.082031h87.726563c5.570312 0 10.085937-4.515625 10.085937-10.082031 0-5.570312-4.515625-10.082031-10.085937-10.082031zm0 0"/><path d="m413.175781 186.371094c-3.546875 0-7.359375.535156-11.339843 1.597656-18.933594 5.0625-41.125 10.898438-62.175782 15.816406-4.558594 1.066406-7.789062 5.136719-7.789062 9.820313v22.039062c0 5.566407 4.515625 10.082031 10.085937 10.082031h68.402344c17.882813 0 28.5625-9.835937 28.5625-26.316406v-5.578125c0-16.9375-9.867187-27.460937-25.746094-27.460937zm5.574219 33.039062c0 3.964844 0 6.148438-8.390625 6.148438h-58.316406v-3.984375c18.90625-4.546875 38.226562-9.640625 54.996093-14.121094 2.28125-.605469 4.34375-.914063 6.136719-.914063 3.117188 0 5.578125 0 5.578125 7.292969v5.578125zm0 0"/><path d="m256.183594 264.742188h-.199219c-5.570313 0-10.085937 4.515624-10.085937 10.082031 0 5.566406 4.515624 10.085937 10.085937 10.085937h.199219c5.570312 0 10.085937-4.519531 10.085937-10.085937 0-5.566407-4.515625-10.082031-10.085937-10.082031zm0 0"/></svg>