<svg id="Capa_1" enable-background="new 0 0 510 510" height="512" viewBox="0 0 510 510" width="512" xmlns="http://www.w3.org/2000/svg"><g><path d="m349.958 308.399c-.792-15.109-13.248-27.565-28.357-28.357-13.801-.723-25.569 7.81-29.873 19.958h-73.455c-4.328-12.216-16.141-20.668-29.873-19.958-15.109.792-27.565 13.248-28.357 28.357-.332 6.325 1.29 12.471 4.688 17.772 1.536 2.396 1.536 5.259 0 7.655 0 .001-.001.001-.001.002-3.397 5.303-5.018 11.448-4.686 17.771.792 15.109 13.248 27.565 28.357 28.357 13.921.721 25.611-7.929 29.873-19.958h73.455c4.312 12.171 16.094 20.676 29.873 19.958 15.109-.792 27.565-13.248 28.357-28.357.332-6.323-1.289-12.469-4.688-17.773-1.536-2.396-1.536-5.258.001-7.656 3.397-5.302 5.018-11.447 4.686-17.771zm-21.526 36.219c1.128 1.761 1.665 3.812 1.554 5.936-.264 5.025-4.406 9.168-9.432 9.432-2.772.145-5.426-.823-7.435-2.73-2.012-1.908-3.119-4.485-3.119-7.256 0-5.522-4.478-10-10-10h-90c-5.523 0-10 4.478-10 10 0 5.685-4.749 10.303-10.554 9.985-7.499-.394-12.021-8.9-7.878-15.367 5.778-9.017 5.779-20.22 0-29.238-4.129-6.442.346-14.97 7.878-15.365 5.765-.301 10.554 4.252 10.554 9.985 0 5.522 4.477 10 10 10h90c5.522 0 10-4.478 10-10 0-5.703 4.758-10.293 10.554-9.985 7.512.395 12.014 8.911 7.879 15.365-5.781 9.018-5.781 20.222-.001 29.238z"/><path d="m497.893 140.705c-13.189-12.831-32.82-14.77-47.893-5.803v-34.902c0-22.056-17.944-40-40-40h-310c-22.056 0-40 17.944-40 40v34.902c-15.076-8.969-34.706-7.027-47.893 5.803-7.807 7.597-12.107 17.779-12.107 28.671v210.624c0 22.056 17.944 40 40 40h10v20c0 5.522 4.478 10 10 10s10-4.478 10-10v-20h370v20c0 5.522 4.478 10 10 10s10-4.478 10-10v-20h10c22.056 0 40-17.944 40-40v-210.624c0-10.892-4.3-21.074-12.107-28.671zm-417.893-40.705c0-11.028 8.972-20 20-20h310c11.028 0 20 8.972 20 20v105.327c-10.623-9.522-24.645-15.327-40-15.327h-85c-20.85 0-39.243 10.696-50 26.884-10.758-16.188-29.15-26.884-50-26.884h-85c-15.355 0-29.377 5.805-40 15.327 0-10.371 0-94.951 0-105.327zm348.734 140h-162.468c4.451-17.233 20.13-30 38.734-30h85c18.604 0 34.283 12.767 38.734 30zm-185 0h-162.468c4.451-17.233 20.13-30 38.734-30h85c18.605 0 34.283 12.767 38.734 30zm246.266 140c0 11.028-8.972 20-20 20h-430c-11.028 0-20-8.972-20-20v-210.624c0-11.174 9.156-20.286 20.568-19.992 10.715.294 19.432 9.542 19.432 20.616v80c0 5.523 4.478 10 10 10h370c5.522 0 10-4.477 10-10v-80c0-11.074 8.717-20.322 19.432-20.616 11.3-.294 20.568 8.721 20.568 19.992z"/></g></svg>