<svg id="Capa_1" enable-background="new 0 0 512 512" height="512" viewBox="0 0 512 512" width="512" xmlns="http://www.w3.org/2000/svg"><g><path d="m511.979 348.344c0-20.074 0 50.626 0-119.442.114-3.411-.23-6.866-1.051-10.283l-25.55-106.345c-4.146-17.256-19.436-29.307-37.182-29.307h-14.17c-4.143 0-7.5 3.357-7.5 7.5s3.357 7.5 7.5 7.5h14.17c10.785 0 20.077 7.324 22.597 17.811l25.55 106.345c.462 1.924.675 3.868.649 5.793-.013.232-.013.375-.013.528-.443 12.107-10.402 22.347-23.233 22.347h-435.492c-12.808 0-22.786-10.212-23.232-22.341 0-.172 0-.308-.014-.539-.026-1.923.187-3.865.649-5.788l25.549-106.345c2.519-10.486 11.812-17.811 22.597-17.811h335.223c4.143 0 7.5-3.357 7.5-7.5s-3.357-7.5-7.5-7.5h-335.223c-17.747 0-33.037 12.052-37.182 29.307l-25.548 106.344c-.822 3.422-1.166 6.881-1.051 10.297v74.391c0 4.143 3.358 7.5 7.5 7.5s7.5-3.357 7.5-7.5v-4.039c6.624 5.094 14.698 7.85 23.232 7.85h435.492c8.534 0 16.608-2.756 23.232-7.85 0 55.493.01 49.731 0 51.006 0 3.789-1.529 9.011-4.696 13.206-4.263 5.673-10.982 9.227-18.537 9.227h-435.491c-11.916 0-21.286-8.779-22.984-19.721-.343-2.207-.244-1.681-.27-16.199-.007-4.112-3.332-7.486-7.514-7.486-4.142.008-7.494 3.371-7.486 7.514.022 12.393.013 40.742.01 53.19-.468 20.901 16.342 39.029 38.244 39.029h435.492c21.942 0 38.711-18.17 38.244-39.028l-.012-39.265c.023-.668.034-1.743.001-2.396zm-38.233-56.226h-435.492c-12.915 0-22.72-10.295-23.232-22.229 0-25.75 0-.002 0-11.946 6.59 5.059 14.69 7.847 23.232 7.847h435.491c8.543 0 16.643-2.789 23.233-7.848v11.954c-.517 11.933-10.319 22.222-23.232 22.222zm0 121.915h-435.492c-13.4 0-23.564-11.139-23.247-23.753.004-.161.003-2.304.005-10.431 6.626 5.098 14.703 7.856 23.241 7.856h435.492c8.538 0 16.615-2.758 23.241-7.856.003 9.721.002 10.237.005 10.43.319 12.617-9.843 23.754-23.245 23.754z"/><path d="m435.877 347.412c3.091 8.676 11.389 14.904 21.113 14.904 12.354 0 22.404-10.051 22.404-22.404 0-12.354-10.051-22.405-22.404-22.405-9.724 0-18.022 6.228-21.113 14.905h-7.642c-4.143 0-7.5 3.357-7.5 7.5s3.357 7.5 7.5 7.5zm21.113-14.905c4.083 0 7.404 3.322 7.404 7.405s-3.321 7.404-7.404 7.404-7.404-3.321-7.404-7.404 3.32-7.405 7.404-7.405z"/><path d="m259.91 139.131c11.248 0 20.399-9.151 20.399-20.399 0-4.143-3.357-7.5-7.5-7.5s-7.5 3.357-7.5 7.5c0 2.978-2.422 5.399-5.399 5.399s-5.399-2.422-5.399-5.399c0-4.143-3.358-7.5-7.5-7.5s-7.5 3.357-7.5 7.5c0 11.248 9.151 20.399 20.399 20.399z"/><path d="m260.867 184.892c11.248 0 20.399-9.151 20.399-20.399 0-4.143-3.357-7.5-7.5-7.5s-7.5 3.357-7.5 7.5c0 2.978-2.422 5.399-5.399 5.399s-5.399-2.422-5.399-5.399c0-4.143-3.358-7.5-7.5-7.5s-7.5 3.357-7.5 7.5c.001 11.247 9.151 20.399 20.399 20.399z"/><path d="m261.824 230.651c11.248 0 20.399-9.151 20.399-20.399 0-4.143-3.357-7.5-7.5-7.5s-7.5 3.357-7.5 7.5c0 2.978-2.422 5.399-5.399 5.399s-5.399-2.422-5.399-5.399c0-4.143-3.358-7.5-7.5-7.5s-7.5 3.357-7.5 7.5c.001 11.248 9.151 20.399 20.399 20.399z"/><path d="m363.818 118.731c0-4.143-3.357-7.5-7.5-7.5s-7.5 3.357-7.5 7.5c0 2.978-2.422 5.399-5.399 5.399s-5.399-2.422-5.399-5.399c0-4.143-3.357-7.5-7.5-7.5s-7.5 3.357-7.5 7.5c0 11.248 9.151 20.399 20.399 20.399s20.399-9.15 20.399-20.399z"/><path d="m347.375 184.892c11.248 0 20.399-9.151 20.399-20.399 0-4.143-3.357-7.5-7.5-7.5s-7.5 3.357-7.5 7.5c0 2.978-2.422 5.399-5.399 5.399s-5.399-2.422-5.399-5.399c0-4.143-3.357-7.5-7.5-7.5s-7.5 3.357-7.5 7.5c0 11.247 9.151 20.399 20.399 20.399z"/><path d="m351.332 230.651c11.248 0 20.399-9.151 20.399-20.399 0-4.143-3.357-7.5-7.5-7.5s-7.5 3.357-7.5 7.5c0 2.978-2.422 5.399-5.399 5.399s-5.399-2.422-5.399-5.399c0-4.143-3.357-7.5-7.5-7.5s-7.5 3.357-7.5 7.5c0 11.248 9.151 20.399 20.399 20.399z"/><path d="m439.824 111.231c-4.143 0-7.5 3.357-7.5 7.5 0 2.978-2.422 5.399-5.399 5.399s-5.398-2.422-5.398-5.399c0-4.143-3.357-7.5-7.5-7.5s-7.5 3.357-7.5 7.5c0 11.248 9.15 20.399 20.398 20.399s20.399-9.151 20.399-20.399c0-4.142-3.357-7.5-7.5-7.5z"/><path d="m445.782 156.992c-4.143 0-7.5 3.357-7.5 7.5 0 2.978-2.422 5.399-5.399 5.399s-5.399-2.422-5.399-5.399c0-4.143-3.357-7.5-7.5-7.5s-7.5 3.357-7.5 7.5c0 11.248 9.151 20.399 20.399 20.399s20.399-9.151 20.399-20.399c0-4.142-3.357-7.5-7.5-7.5z"/><path d="m444.24 210.252c0 2.978-2.422 5.399-5.399 5.399s-5.399-2.422-5.399-5.399c0-4.143-3.357-7.5-7.5-7.5s-7.5 3.357-7.5 7.5c0 11.248 9.151 20.399 20.399 20.399s20.399-9.151 20.399-20.399c0-4.143-3.357-7.5-7.5-7.5s-7.5 3.357-7.5 7.5z"/><path d="m189.302 111.231c-4.142 0-7.5 3.357-7.5 7.5 0 2.978-2.422 5.399-5.399 5.399s-5.399-2.422-5.399-5.399c0-4.143-3.358-7.5-7.5-7.5s-7.5 3.357-7.5 7.5c0 11.248 9.151 20.399 20.399 20.399s20.399-9.151 20.399-20.399c0-4.142-3.358-7.5-7.5-7.5z"/><path d="m185.345 156.992c-4.142 0-7.5 3.357-7.5 7.5 0 2.978-2.422 5.399-5.399 5.399s-5.399-2.422-5.399-5.399c0-4.143-3.358-7.5-7.5-7.5s-7.5 3.357-7.5 7.5c0 11.248 9.151 20.399 20.399 20.399s20.399-9.151 20.399-20.399c0-4.142-3.358-7.5-7.5-7.5z"/><path d="m181.387 202.752c-4.142 0-7.5 3.357-7.5 7.5 0 2.978-2.422 5.399-5.399 5.399s-5.399-2.422-5.399-5.399c0-4.143-3.358-7.5-7.5-7.5s-7.5 3.357-7.5 7.5c0 11.248 9.151 20.399 20.399 20.399s20.399-9.151 20.399-20.399c0-4.143-3.357-7.5-7.5-7.5z"/><path d="m105.794 111.231c-4.142 0-7.5 3.357-7.5 7.5 0 2.978-2.422 5.399-5.399 5.399s-5.399-2.422-5.399-5.399c0-4.143-3.358-7.5-7.5-7.5s-7.5 3.357-7.5 7.5c0 11.248 9.151 20.399 20.399 20.399s20.399-9.151 20.399-20.399c0-4.142-3.358-7.5-7.5-7.5z"/><path d="m99.837 156.992c-4.142 0-7.5 3.357-7.5 7.5 0 2.978-2.422 5.399-5.399 5.399s-5.399-2.422-5.399-5.399c0-4.143-3.358-7.5-7.5-7.5s-7.5 3.357-7.5 7.5c0 11.248 9.151 20.399 20.399 20.399s20.399-9.151 20.399-20.399c0-4.142-3.358-7.5-7.5-7.5z"/><path d="m93.88 202.752c-4.142 0-7.5 3.357-7.5 7.5 0 2.978-2.422 5.399-5.399 5.399s-5.399-2.422-5.399-5.399c0-4.143-3.358-7.5-7.5-7.5s-7.5 3.357-7.5 7.5c0 11.248 9.151 20.399 20.399 20.399s20.399-9.151 20.399-20.399c0-4.143-3.358-7.5-7.5-7.5z"/><path d="m232.169 347.316c-4.142 0-7.5 3.357-7.5 7.5s3.358 7.5 7.5 7.5h98.35c4.143 0 7.5-3.357 7.5-7.5v-29.81c0-4.143-3.357-7.5-7.5-7.5h-149.037c-4.142 0-7.5 3.357-7.5 7.5v29.81c0 4.143 3.358 7.5 7.5 7.5h15.687c4.142 0 7.5-3.357 7.5-7.5s-3.358-7.5-7.5-7.5h-8.187v-14.81h134.037v14.81z"/></g></svg>