<svg height="512pt" viewBox="0 -106 512.00005 512" width="512pt" xmlns="http://www.w3.org/2000/svg"><path d="m487.898438 69.011719c-.023438-.007813-.046876-.015625-.070313-.019531-5.875-1.5625-11.84375-1.375-17.34375.238281-5.585937-39.410157-39.261719-69.230469-79.894531-69.230469h-269.179688c-40.636718 0-74.3125 29.824219-79.894531 69.234375-5.523437-1.621094-11.519531-1.804687-17.414063-.222656-16.953124 4.535156-27.351562 22.097656-23.183593 39.140625l16.667969 68.164062c.984374 4.023438 5.042968 6.488282 9.070312 5.503906 4.023438-.984374 6.488281-5.042968 5.503906-9.066406l-16.667968-68.164062c-2.246094-9.183594 3.355468-18.644532 12.488281-21.089844 9.132812-2.445312 18.710937 2.949219 21.355469 12.019531l16.921874 58.027344c5.78125 19.820313 24.21875 33.460937 44.609376 33.460937h290.261718c20.519532 0 38.863282-13.757812 44.609375-33.460937l16.921875-58.027344c2.648438-9.070312 12.226563-14.464843 21.355469-12.019531.019531.003906.039063.011719.058594.015625 9.097656 2.46875 14.675781 11.90625 12.4375 21.074219l-24.160157 98.816406c-3.097656 12.671875-13.898437 21.746094-26.714843 22.761719-1.074219-.582031-2.292969-.90625-3.574219-.90625h-372.125c-1.28125 0-2.5.324219-3.574219.90625-12.816406-1.019531-23.617187-10.09375-26.714843-22.769531-.980469-4.019532-5.039063-6.484376-9.066407-5.503907-4.023437.984375-6.488281 5.042969-5.503906 9.066407 4.195313 17.175781 17.816406 29.945312 34.585937 33.382812l-10.84375 34.175781c-1.878906 5.933594-.851562 12.214844 2.824219 17.238281 3.675781 5.019532 9.351563 7.898438 15.574219 7.898438 7.898438 0 14.921875-4.730469 17.886719-12.050781l8.40625-20.742188h324.976562l8.40625 20.742188c2.964844 7.320312 9.988281 12.050781 17.886719 12.050781 6.222656 0 11.898438-2.878906 15.574219-7.898438 3.675781-5.023437 4.703125-11.304687 2.824219-17.238281l-10.84375-34.175781c16.765624-3.4375 30.386718-16.203125 34.585937-33.371094l24.160156-98.824218c4.164063-17.042969-6.234375-34.601563-23.183593-39.136719zm-398.757813 94.234375c.027344-6.902344 4.6875-12.878906 11.351563-14.539063 26.5-6.597656 53.371093-6.597656 79.867187 0 6.679687 1.664063 11.347656 7.671875 11.347656 14.601563v8.695312h-80.835937c-8.257813 0-15.996094-3.289062-21.730469-8.757812zm311.988281 8.757812h-76.851562v-8.695312c0-.070313 0-.144532 0-.214844.09375-6.835938 4.738281-12.734375 11.351562-14.386719 26.496094-6.601562 53.371094-6.597656 79.863282 0 5.308593 1.324219 9.421874 5.460938 10.824218 10.652344-5.835937 7.761719-15.125 12.644531-25.1875 12.644531zm32.238282-29.621094c-3.808594-3.9375-8.699219-6.847656-14.246094-8.230468-28.902344-7.199219-58.214844-7.199219-87.121094 0-6.070312 1.515625-11.308594 4.808594-15.222656 9.246094-3.914063-4.4375-9.15625-7.734376-15.226563-9.246094-19.929687-4.96875-40.152343-6.527344-60.109375-4.640625-4.125.390625-7.152344 4.050781-6.761718 8.171875.390624 4.125 4.046874 7.144531 8.171874 6.761718 18.261719-1.726562 36.792969-.292968 55.074219 4.261719 6.613281 1.648438 11.253907 7.546875 11.347657 14.386719v.21875 8.695312h-102.5625v-8.699218c0-5.976563 3.511718-11.386719 8.949218-13.78125 3.792969-1.667969 5.511719-6.09375 3.84375-9.886719-1.667968-3.789063-6.097656-5.511719-9.886718-3.84375-4.054688 1.789063-7.578126 4.410156-10.398438 7.613281-3.914062-4.445312-9.15625-7.742187-15.230469-9.257812-28.90625-7.199219-58.214843-7.199219-87.125 0-7.164062 1.789062-13.167969 6.054687-17.207031 11.757812l-15.917969-54.589844c-1.535156-5.265624-4.332031-9.863281-7.964843-13.554687 1.574218-35.203125 30.390624-62.765625 65.636718-62.765625h269.179688c35.246094 0 64.054687 27.554688 65.636718 62.761719-3.636718 3.695312-6.429687 8.292969-7.964843 13.558593zm7.429687 139.589844-10.304687-25.425781c-1.148438-2.832031-3.898438-4.683594-6.953126-4.683594h-335.078124c-3.054688 0-5.804688 1.851563-6.953126 4.683594l-10.304687 25.425781c-2.050781 5.058594-9.742187 2.320313-8.082031-2.917968l11.988281-37.792969h361.78125l11.988281 37.792969c1.660156 5.234374-6.027344 7.988281-8.082031 2.917968zm0 0"/><path d="m150.378906 59.300781h-2.5v-2.5c0-4.144531-3.359375-7.5-7.5-7.5-4.144531 0-7.5 3.355469-7.5 7.5v2.5h-2.5c-4.144531 0-7.5 3.355469-7.5 7.5 0 4.140625 3.355469 7.5 7.5 7.5h2.5v2.5c0 4.140625 3.355469 7.5 7.5 7.5 4.140625 0 7.5-3.359375 7.5-7.5v-2.5h2.5c4.140625 0 7.5-3.359375 7.5-7.5 0-4.144531-3.355468-7.5-7.5-7.5zm0 0"/><path d="m227.460938 59.300781h-2.5v-2.5c0-4.144531-3.359376-7.5-7.5-7.5-4.144532 0-7.503907 3.355469-7.503907 7.5v2.5h-2.5c-4.140625 0-7.5 3.355469-7.5 7.5 0 4.140625 3.359375 7.5 7.5 7.5h2.5v2.5c0 4.140625 3.359375 7.5 7.503907 7.5 4.140624 0 7.5-3.359375 7.5-7.5v-2.5h2.5c4.140624 0 7.5-3.359375 7.5-7.5 0-4.144531-3.359376-7.5-7.5-7.5zm0 0"/><path d="m304.539062 59.300781h-2.5v-2.5c0-4.144531-3.355468-7.5-7.5-7.5-4.140624 0-7.5 3.355469-7.5 7.5v2.5h-2.5c-4.140624 0-7.5 3.355469-7.5 7.5 0 4.140625 3.359376 7.5 7.5 7.5h2.5v2.5c0 4.140625 3.359376 7.5 7.5 7.5 4.144532 0 7.5-3.359375 7.5-7.5v-2.5h2.5c4.144532 0 7.5-3.359375 7.5-7.5 0-4.144531-3.355468-7.5-7.5-7.5zm0 0"/><path d="m381.621094 59.300781h-2.5v-2.5c0-4.144531-3.355469-7.5-7.5-7.5-4.140625 0-7.5 3.355469-7.5 7.5v2.5h-2.5c-4.140625 0-7.5 3.355469-7.5 7.5 0 4.140625 3.359375 7.5 7.5 7.5h2.5v2.5c0 4.140625 3.359375 7.5 7.5 7.5 4.144531 0 7.5-3.359375 7.5-7.5v-2.5h2.5c4.144531 0 7.5-3.359375 7.5-7.5 0-4.144531-3.355469-7.5-7.5-7.5zm0 0"/></svg>