<svg height="512" viewBox="0 0 60 60" width="512" xmlns="http://www.w3.org/2000/svg"><g id="Page-1" fill="none" fill-rule="evenodd"><g id="029---Prayer-Rug" fill="rgb(0,0,0)" fill-rule="nonzero"><path id="Shape" d="m13 51c0-2.209139-1.790861-4-4-4s-4 1.790861-4 4 1.790861 4 4 4 4-1.790861 4-4zm-6 0c0-1.1045695.8954305-2 2-2s2 .8954305 2 2-.8954305 2-2 2-2-.8954305-2-2z"/><path id="Shape" d="m45 13h-1c-.5522847 0-1 .4477153-1 1s.4477153 1 1 1h1c.5522847 0 1-.4477153 1-1s-.4477153-1-1-1z"/><path id="Shape" d="m45 17h-1c-.5522847 0-1 .4477153-1 1s.4477153 1 1 1h1c.5522847 0 1-.4477153 1-1s-.4477153-1-1-1z"/><path id="Shape" d="m45 21h-1c-.5522847 0-1 .4477153-1 1s.4477153 1 1 1h1c.5522847 0 1-.4477153 1-1s-.4477153-1-1-1z"/><path id="Shape" d="m45 25h-1c-.5522847 0-1 .4477153-1 1s.4477153 1 1 1h1c.5522847 0 1-.4477153 1-1s-.4477153-1-1-1z"/><path id="Shape" d="m45 29h-1c-.5522847 0-1 .4477153-1 1s.4477153 1 1 1h1c.5522847 0 1-.4477153 1-1s-.4477153-1-1-1z"/><path id="Shape" d="m45 33h-1c-.5522847 0-1 .4477153-1 1s.4477153 1 1 1h1c.5522847 0 1-.4477153 1-1s-.4477153-1-1-1z"/><path id="Shape" d="m45 37h-1c-.5522847 0-1 .4477153-1 1s.4477153 1 1 1h1c.5522847 0 1-.4477153 1-1s-.4477153-1-1-1z"/><path id="Shape" d="m45 41h-1c-.5522847 0-1 .4477153-1 1s.4477153 1 1 1h1c.5522847 0 1-.4477153 1-1s-.4477153-1-1-1z"/><path id="Shape" d="m45 45h-1c-.5522847 0-1 .4477153-1 1s.4477153 1 1 1h1c.5522847 0 1-.4477153 1-1s-.4477153-1-1-1z"/><path id="Shape" d="m45 49h-1c-.5522847 0-1 .4477153-1 1s.4477153 1 1 1h1c.5522847 0 1-.4477153 1-1s-.4477153-1-1-1z"/><path id="Shape" d="m45 53h-1c-.5522847 0-1 .4477153-1 1s.4477153 1 1 1h1c.5522847 0 1-.4477153 1-1s-.4477153-1-1-1z"/><path id="Shape" d="m58 10h-1c-1.2613061.0031967-2.4465169.6037777-3.195 1.619-.7941393-.6221483-1.8545371-.7868886-2.8-.435v-.184c0-1.65685425-1.3431458-3-3-3h-30.064c-.5445071-4.73377399-4.6843091-8.22277997-9.44191182-7.9575995-4.75760271.26518046-8.48402415 4.19263599-8.49908818 8.9575995v42c.00551113 4.9682782 4.03172183 8.9944889 9 9 .27 0 .535-.017.8-.041.06491335.0211419.132004.0348955.2.041h38c1.6568542 0 3-1.3431458 3-3v-.184c.9469126.3537732 2.0097135.1889538 2.805-.435.7484831 1.0152223 1.9336939 1.6158033 3.195 1.619h1c1.1045695 0 2-.8954305 2-2v-4c0-1.1045695-.8954305-2-2-2h-1c-1.2613061.0031967-2.4465169.6037777-3.195 1.619-.7941393-.6221483-1.8545371-.7868886-2.8-.435v-4.368c.9469126.3537732 2.0097135.1889538 2.805-.435.747435 1.0138112 1.9304567 1.6142225 3.19 1.619h1c1.1045695 0 2-.8954305 2-2v-4c0-1.1045695-.8954305-2-2-2h-1c-1.2613061.0031967-2.4465169.6037777-3.195 1.619-.7941393-.6221483-1.8545371-.7868886-2.8-.435v-4.368c.9469126.3537732 2.0097135.1889538 2.805-.435.747435 1.0138112 1.9304567 1.6142225 3.19 1.619h1c1.1045695 0 2-.8954305 2-2v-4c0-1.1045695-.8954305-2-2-2h-1c-1.2613061.0031967-2.4465169.6037777-3.195 1.619-.7941393-.6221483-1.8545371-.7868886-2.8-.435v-4.368c.9469126.3537732 2.0097135.1889538 2.805-.435.747435 1.0138112 1.9304567 1.6142225 3.19 1.619h1c1.1045695 0 2-.8954305 2-2v-4c0-1.1045695-.8954305-2-2-2h-1c-1.2613061.0031967-2.4465169.6037777-3.195 1.619-.7941393-.6221483-1.8545371-.7868886-2.8-.435v-4.368c.9469126.3537732 2.0097135.1889538 2.805-.435.747435 1.0138112 1.9304567 1.6142225 3.19 1.619h1c1.1045695 0 2-.8954305 2-2v-4c0-1.1045695-.8954305-2-2-2zm-40 11h7.389c.4341055.00722.8162682.2879271.953.7.481 1.32 1.874 3.619 5.788 4.174.494121.0686871.8638739.4881654.87.987v14.277c-.0061261.4988346-.375879.9183129-.87.987-3.914.555-5.307 2.854-5.788 4.174-.1367318.4120729-.5188945.69278-.953.7h-7.389zm0 30v-2h7.389c1.272554-.0131588 2.4024221-.8170728 2.832-2.015.4-1.1 1.453-2.492 4.19-2.88 1.4784249-.2118445 2.5793487-1.4735057 2.589-2.967v-14.276c-.0121138-1.4915921-1.1124377-2.7504408-2.589-2.962-2.737-.388-3.789-1.78-4.19-2.88-.427913-1.1998975-1.5581595-2.0060761-2.832-2.02h-7.389v-4h13.384c.4296585.0128516.8020422.3012268.922.714.6942425 2.1985886 2.5890999 3.8033057 4.872 4.126.466699.0707141.8141473.4680395.822.94v26.44c-.0078527.4719605-.355301.8692859-.822.94-2.2828665.323258-4.177762 1.927678-4.873 4.126-.1192944.4128044-.4914903.7013472-.921.714h-13.616c.1521372-.6558489.2299605-1.3267398.232-2zm-16-42c0-3.86599325 3.13400675-7 7-7 3.8659932 0 7 3.13400675 7 7v36.356c-1.7040724-2.1218356-4.2785943-3.3562135-7-3.3562135-2.72140571 0-5.2959276 1.2343779-7 3.3562135zm0 42c0-2.8312357 1.70549525-5.3836897 4.32121597-6.4671567 2.61572073-1.083467 5.62654553-.4845767 7.62853153 1.5174092 2.0019859 2.001986 2.6008762 5.0128108 1.5174092 7.6285315-1.083467 2.6157208-3.635921 4.321216-6.4671567 4.321216-3.86416566-.0044086-6.99559136-3.1358343-7-7zm47 6c0 .5522847-.4477153 1-1 1h-33.356c1.0078357-.8159105 1.8283915-1.8390474 2.406-3h14.334c1.2981831-.0103958 2.4403664-.859753 2.824-2.1.4686566-1.5015324 1.7751815-2.5880193 3.337-2.775 1.4108687-.2512249 2.4425333-1.471993 2.455-2.905v-26.44c-.0124667-1.433007-1.0441313-2.6537751-2.455-2.905-1.5616502-.1868618-2.8679335-1.2734733-3.336-2.775-.3842922-1.2402094-1.5266597-2.0894029-2.825-2.1h-13.384v-3h30c.5522847 0 1 .4477153 1 1zm8-5h1v4h-1c-1.1045695 0-2-.8954305-2-2s.8954305-2 2-2zm-5 1c.5522847 0 1 .4477153 1 1s-.4477153 1-1 1-1-.4477153-1-1 .4477153-1 1-1zm5-11h1v4h-1c-1.1045695 0-2-.8954305-2-2s.8954305-2 2-2zm-5 1c.5522847 0 1 .4477153 1 1s-.4477153 1-1 1-1-.4477153-1-1 .4477153-1 1-1zm5-11h1v4h-1c-1.1045695 0-2-.8954305-2-2s.8954305-2 2-2zm-5 1c.5522847 0 1 .4477153 1 1s-.4477153 1-1 1-1-.4477153-1-1 .4477153-1 1-1zm5-11h1v4h-1c-1.1045695 0-2-.8954305-2-2s.8954305-2 2-2zm-5 1c.5522847 0 1 .4477153 1 1s-.4477153 1-1 1-1-.4477153-1-1 .4477153-1 1-1zm0-8c-.5522847 0-1-.4477153-1-1s.4477153-1 1-1 1 .4477153 1 1-.4477153 1-1 1zm5 1c-1.1045695 0-2-.8954305-2-2s.8954305-2 2-2h1v4z"/></g></g></svg>